# xmcd
#
# Track frame offsets: 
#        150
#        11980
#        21390
#        32750
#        45262
#        54361
#        68119
#        79308
#        92184
#        104069
#        118362
#        129730
#        135712
#        145456
#        156681
#        169052
#
# Disc length: 2385 seconds
#
# Revision: 0
# Processed by: cddbd v1.5.2PL0 Copyright (c) Steve Scherf et al.
# Submitted via: ExactAudioCopy v0.95b4
#
DISCID=f2094f10
DTITLE=Various Artist - Country Legends - Rawhide
DYEAR=2005
DGENRE=Country
TTITLE0=Linda On My Mind/Conway Twittty
TTITLE1=Six Days On The Road/Dave Dudley
TTITLE2=Walkin' After Midnight/Patsy Cline
TTITLE3=Country Confort/Rex Allen Junior
TTITLE4=Rawhide/Frankie Laine
TTITLE5=The Tennessee Waltz/Patti Page
TTITLE6=Oh Lonesome Me/Johnny Cash
TTITLE7=Apartment N° 9/Faron Young
TTITLE8=I Can't Help You I'm Falling Too/Skeeter Davis
TTITLE9=Wild Side Of Life/Freddy Fender
TTITLE10=Listen To A Country Song/Lynn Anderson
TTITLE11=I Fall To Pieces/Loretta Lynn
TTITLE12=Let's Pretend/Willie Nelson
TTITLE13=Box Of Memories/Jeannie C Riley
TTITLE14=Bebind Closed Doors/Charlie Rich
TTITLE15=My Arms Stay Open Late/Billie Jo Spears
EXTD=
EXTT0=
EXTT1=
EXTT2=
EXTT3=
EXTT4=
EXTT5=
EXTT6=
EXTT7=
EXTT8=
EXTT9=
EXTT10=
EXTT11=
EXTT12=
EXTT13=
EXTT14=
EXTT15=
PLAYORDER=
